<svg width="512" height="512" viewBox="0 0 512 512" fill="none" xmlns="http://www.w3.org/2000/svg" role="img" aria-labelledby="title desc">
  <title id="title">淋雨机器人</title>
  <desc id="desc">一个带雨滴和闪电元素的机器人头像，用于 AstrBot-Deploy 控制台品牌标识。</desc>
  <defs>
    <linearGradient id="bg" x1="88" y1="54" x2="434" y2="464" gradientUnits="userSpaceOnUse">
      <stop offset="0" stop-color="#0B0F19"/>
      <stop offset="0.55" stop-color="#111827"/>
      <stop offset="1" stop-color="#030712"/>
    </linearGradient>
    <linearGradient id="rain" x1="137" y1="103" x2="378" y2="407" gradientUnits="userSpaceOnUse">
      <stop offset="0" stop-color="#7DD3FC"/>
      <stop offset="0.45" stop-color="#38BDF8"/>
      <stop offset="1" stop-color="#6366F1"/>
    </linearGradient>
    <linearGradient id="face" x1="120" y1="139" x2="392" y2="380" gradientUnits="userSpaceOnUse">
      <stop offset="0" stop-color="#FFFFFF"/>
      <stop offset="1" stop-color="#E5E7EB"/>
    </linearGradient>
    <filter id="soft" x="38" y="34" width="438" height="438" filterUnits="userSpaceOnUse" color-interpolation-filters="sRGB">
      <feDropShadow dx="0" dy="24" stdDeviation="30" flood-color="#0F172A" flood-opacity="0.32"/>
    </filter>
    <filter id="glow" x="118" y="150" width="276" height="201" filterUnits="userSpaceOnUse" color-interpolation-filters="sRGB">
      <feGaussianBlur stdDeviation="10" result="blur"/>
      <feColorMatrix in="blur" type="matrix" values="0 0 0 0 0.219 0 0 0 0 0.737 0 0 0 0 0.968 0 0 0 .42 0"/>
      <feBlend in="SourceGraphic"/>
    </filter>
  </defs>

  <rect x="56" y="56" width="400" height="400" rx="116" fill="url(#bg)"/>
  <path d="M124 128C171 70 259 54 326 86C386 114 423 176 417 242" stroke="url(#rain)" stroke-width="18" stroke-linecap="round" opacity=".88"/>
  <path d="M104 362C143 419 226 450 304 425C359 408 399 363 413 309" stroke="url(#rain)" stroke-width="14" stroke-linecap="round" opacity=".68"/>

  <g filter="url(#soft)">
    <path d="M161 205C161 170 189 142 224 142H288C323 142 351 170 351 205V216H363C383 216 399 232 399 252V310C399 330 383 346 363 346H149C129 346 113 330 113 310V252C113 232 129 216 149 216H161V205Z" fill="url(#face)"/>
    <path d="M161 215V205C161 170 189 142 224 142H288C323 142 351 170 351 205V215" stroke="#111827" stroke-width="13" stroke-linecap="round"/>
    <rect x="142" y="185" width="228" height="174" rx="56" fill="#F8FAFC" stroke="#111827" stroke-width="13"/>
    <path d="M113 261H82C69 261 58 272 58 285V292C58 305 69 316 82 316H113" stroke="#111827" stroke-width="13" stroke-linecap="round"/>
    <path d="M399 261H430C443 261 454 272 454 285V292C454 305 443 316 430 316H399" stroke="#111827" stroke-width="13" stroke-linecap="round"/>
    <path d="M256 141V103" stroke="#111827" stroke-width="13" stroke-linecap="round"/>
    <circle cx="256" cy="88" r="18" fill="url(#rain)" stroke="#111827" stroke-width="10"/>
  </g>

  <g filter="url(#glow)">
    <path d="M203 257C211 246 224 240 238 242C250 244 260 253 264 265" stroke="#0F172A" stroke-width="12" stroke-linecap="round"/>
    <path d="M309 257C301 246 288 240 274 242C262 244 252 253 248 265" stroke="#0F172A" stroke-width="12" stroke-linecap="round"/>
    <circle cx="219" cy="279" r="13" fill="#38BDF8"/>
    <circle cx="293" cy="279" r="13" fill="#38BDF8"/>
  </g>

  <path d="M218 323C240 337 273 337 294 323" stroke="#111827" stroke-width="12" stroke-linecap="round"/>
  <path d="M257 183C243 206 230 224 218 238H248L232 292C254 268 274 244 294 215H263L279 183H257Z" fill="url(#rain)" stroke="#111827" stroke-width="8" stroke-linejoin="round"/>

  <path d="M148 112C138 129 128 145 128 159C128 174 139 185 154 185C169 185 180 174 180 159C180 145 168 129 158 112C156 108 150 108 148 112Z" fill="url(#rain)" stroke="#111827" stroke-width="8"/>
  <path d="M384 133C376 147 368 160 368 171C368 184 378 194 391 194C404 194 414 184 414 171C414 160 404 147 396 133C393 128 387 128 384 133Z" fill="url(#rain)" stroke="#111827" stroke-width="7" opacity=".95"/>
  <path d="M114 382L142 354" stroke="#38BDF8" stroke-width="12" stroke-linecap="round"/>
  <path d="M370 386L398 358" stroke="#38BDF8" stroke-width="12" stroke-linecap="round" opacity=".75"/>
</svg>
